HIERARCHY
ROOT reference
{
	OFFSET 0.000000 0.000000 0.000000
	CHANNELS 6 Xposition Yposition Zposition Xrotation Yrotation Zrotation
	JOINT root
	{
		OFFSET 0.000000 88.249100 0.000000
		CHANNELS 3 Xrotation Yrotation Zrotation
		JOINT Hips
		{
			OFFSET 0.000000 0.000000 0.000000
			CHANNELS 3 Xrotation Yrotation Zrotation
			JOINT Spine
			{
				OFFSET 0.026468 -0.105484 0.004200
				CHANNELS 3 Xrotation Yrotation Zrotation
				JOINT Spine1
				{
					OFFSET -4.853550 17.193398 -5.027490
					CHANNELS 3 Xrotation Yrotation Zrotation
					JOINT Spine2
					{
						OFFSET -3.457130 17.043404 -6.489570
						CHANNELS 3 Xrotation Yrotation Zrotation
						JOINT Neck
						{
							OFFSET -5.140712 15.586197 -8.669378
							CHANNELS 3 Xrotation Yrotation Zrotation
							JOINT Head
							{
								OFFSET -4.152531 8.554810 -6.523930
								CHANNELS 3 Xrotation Yrotation Zrotation
								End Site
								{
									OFFSET 0.000000 0.100006 0.000000
								}
							}
						}
						JOINT RightShoulder
						{
							OFFSET -3.299612 14.542206 -11.633701
							CHANNELS 3 Xrotation Yrotation Zrotation
							JOINT RightArm
							{
								OFFSET 5.333408 -8.032120 -12.870399
								CHANNELS 3 Xrotation Yrotation Zrotation
								JOINT RightForearm
								{
									OFFSET 0.595383 -13.786201 -25.966301
									CHANNELS 3 Xrotation Yrotation Zrotation
									JOINT RightHand
									{
										OFFSET -13.516900 -1.519981 -20.889801
										CHANNELS 3 Xrotation Yrotation Zrotation
										End Site
										{
											OFFSET 0.000000 0.099998 0.000000
										}
									}
								}
							}
						}
						JOINT LeftShoulder
						{
							OFFSET -6.992720 16.618195 -5.713737
							CHANNELS 3 Xrotation Yrotation Zrotation
							JOINT LeftArm
							{
								OFFSET -6.718707 3.247299 14.245000
								CHANNELS 3 Xrotation Yrotation Zrotation
								JOINT LeftForearm
								{
									OFFSET 8.817433 -14.592697 23.957705
									CHANNELS 3 Xrotation Yrotation Zrotation
									JOINT LeftHand
									{
										OFFSET -10.526401 -21.311096 7.512060
										CHANNELS 3 Xrotation Yrotation Zrotation
										End Site
										{
											OFFSET 0.000000 0.099998 0.000000
										}
									}
								}
							}
						}
					}
				}
			}
			JOINT RightUpLeg
			{
				OFFSET 4.593228 -0.383102 -8.373440
				CHANNELS 3 Xrotation Yrotation Zrotation
				JOINT RightLeg
				{
					OFFSET -10.208004 -39.044800 -19.962500
					CHANNELS 3 Xrotation Yrotation Zrotation
					JOINT RightFoot
					{
						OFFSET 4.843628 -40.875301 -1.150339
						CHANNELS 3 Xrotation Yrotation Zrotation
						JOINT RightToe
						{
							OFFSET -9.736701 -6.853460 -13.504299
							CHANNELS 3 Xrotation Yrotation Zrotation
							End Site
							{
								OFFSET 0.000000 0.100000 0.000000
							}
						}
					}
				}
			}
			JOINT LeftUpLeg
			{
				OFFSET -4.593220 0.383102 8.373440
				CHANNELS 3 Xrotation Yrotation Zrotation
				JOINT LeftLeg
				{
					OFFSET -5.425186 -42.687302 13.250099
					CHANNELS 3 Xrotation Yrotation Zrotation
					JOINT LeftFoot
					{
						OFFSET 11.095002 -37.688301 12.331501
						CHANNELS 3 Xrotation Yrotation Zrotation
						JOINT LeftToe
						{
							OFFSET -16.356800 -7.519040 -0.239315
							CHANNELS 3 Xrotation Yrotation Zrotation
							End Site
							{
								OFFSET 0.000000 0.100000 0.000000
							}
						}
					}
				}
			}
		}
	}
}
MOTION
Frames: 11
Frame Time: 0.041667
0.000000 0.000000 0.000000 -0.000000 0.000000 -0.000000 0.000001 0.000001 0.000002 0.000000 0.000005 0.000004 -0.000001 0.000001 0.000001 -0.000001 0.000000 0.000001 -0.000004 -0.000001 0.000004 0.000012 0.000009 -0.000009 0.000001 0.000000 -0.000001 -0.000003 0.000014 -0.000009 -0.000001 -0.000003 -0.000001 -0.000002 0.000005 0.000002 -0.000007 -0.000005 -0.000001 -0.000003 -0.000014 0.000001 0.000006 -0.000001 0.000002 0.000011 0.000007 -0.000003 0.000003 -0.000005 -0.000006 0.000008 0.000009 -0.000016 0.000006 -0.000015 -0.000002 0.000002 -0.000004 -0.000007 0.000000 -0.000001 0.000001 0.000003 0.000000 -0.000006 0.000003 -0.000006 -0.000002 -0.000003 -0.000001 0.000007 0.000000 0.000581 -0.000001 
0.000000 0.000000 0.000000 -0.000000 0.000000 -0.000000 0.000001 0.000001 0.000002 0.000000 0.000005 0.000004 -0.000001 0.000001 0.000001 -0.000001 0.000000 0.000001 -0.000004 -0.000001 0.000004 0.000012 0.000009 -0.000009 0.000001 0.000000 -0.000001 -0.000003 0.000014 -0.000009 -0.000001 -0.000003 -0.000001 -0.000002 0.000005 0.000002 -0.000007 -0.000005 -0.000001 -0.000003 -0.000014 0.000001 0.000006 -0.000001 0.000002 0.000011 0.000007 -0.000003 0.000003 -0.000005 -0.000006 0.000008 0.000009 -0.000016 0.000006 -0.000015 -0.000002 0.000002 -0.000004 -0.000007 0.000000 -0.000001 0.000001 0.000003 0.000000 -0.000006 0.000003 -0.000006 -0.000002 -0.000003 -0.000001 0.000007 0.000000 0.000581 -0.000001 
-0.541483 0.000000 -0.728274 -0.000000 0.000000 -0.000000 -0.134398 0.665675 -0.048998 0.024329 0.008997 0.012935 0.019554 0.019290 0.101026 0.019953 0.060690 0.131060 0.011876 0.050882 0.084320 -0.091498 -0.073236 0.018791 -0.168604 -0.169711 -0.048178 0.092278 -0.139251 0.093413 -3.226885 -1.259578 0.038951 1.718371 2.452004 -1.310443 3.627288 -0.461884 3.526258 0.123261 0.074224 0.039803 -0.779116 0.921656 -1.689543 1.448996 -1.176368 -1.230132 -0.531140 -1.242225 0.641647 0.339126 -0.084911 -0.298347 -0.752152 -0.109743 0.591235 -0.021269 -0.238033 -0.392828 0.414710 0.008134 -0.034306 -0.381483 0.214377 1.260870 0.091762 -0.909128 -2.873332 0.639894 0.517542 1.525159 -0.021088 0.000579 0.005644 
-0.981864 0.000000 -1.067990 -0.000000 0.000000 -0.000000 -0.477850 2.393450 -0.472634 0.285741 0.105545 0.151743 0.151461 -0.059181 0.327972 0.159287 0.134567 0.412182 0.103366 0.122584 0.270299 -0.324163 -0.325329 -0.030229 -0.485621 -0.667552 -0.349830 0.346053 -0.407894 0.301196 -12.671739 -4.646272 0.149674 6.835343 9.045471 -5.373288 13.099568 -1.432410 12.374472 0.416375 0.035980 0.216164 -3.668048 3.178925 -6.667325 4.778386 -4.077048 -4.022672 -1.599691 -3.590518 1.881081 1.947531 -0.787444 -1.387352 -4.394774 -0.753777 3.445711 -1.639740 -0.436238 -2.689530 3.838700 0.104554 0.035320 0.525393 -0.965853 -0.420437 -0.038038 0.283299 0.899038 1.954919 -0.605188 -1.943858 -0.200764 0.000393 0.053731 
-1.421670 0.000000 -1.383370 -0.000000 0.000000 -0.000000 -0.643454 3.270094 -0.776290 0.485193 0.179804 0.257434 0.216490 -0.097725 0.436495 0.218263 0.203518 0.535663 0.141821 0.178695 0.349293 -0.365907 -0.458523 -0.138483 -0.458512 -0.880116 -0.587306 0.639525 -0.608125 0.495015 -18.737301 -6.817858 0.683566 10.925192 13.592347 -8.757850 17.301293 -0.939933 17.232772 0.680815 0.009781 0.373493 -5.453720 4.404710 -9.750597 6.220121 -5.420477 -5.215485 -2.058697 -4.198063 2.313754 3.294783 -1.216318 -1.916069 -7.138383 -1.363034 5.583864 -3.774183 0.087770 -5.422055 6.177446 0.177189 1.678941 0.800769 -1.684293 -1.381747 -0.155635 1.005273 3.201048 1.704737 -1.196421 -3.349316 -0.327815 0.000079 0.087737 
-2.155540 0.000000 -2.475150 -0.000000 0.000000 -0.000000 -0.808453 4.338836 -0.886204 0.592800 0.220012 0.314389 0.256792 -0.179916 0.305866 0.263502 0.124254 0.351465 0.174938 0.112029 0.230926 -0.247073 -0.349298 -0.135219 -0.306449 -0.650967 -0.470255 1.607349 -0.874689 0.971021 -25.679131 -9.417266 2.407168 16.625418 18.965070 -13.624694 19.488823 0.621552 21.544876 1.078428 0.343278 0.465384 -7.094904 5.427360 -12.688986 7.025172 -6.194003 -5.876759 -2.432459 -5.087933 2.900114 4.856775 -1.326902 -2.165288 -9.993087 -2.111476 7.795195 -6.034937 1.561001 -8.527964 7.519422 0.108627 4.808946 0.773727 -2.604431 -2.556013 -0.330345 1.844876 5.902708 -0.234471 -1.366506 -3.327436 -0.380441 -0.000095 0.101820 
-3.481071 0.000000 -6.581789 -0.000000 0.000000 -0.000000 -1.097565 6.566315 0.382506 -0.067148 -0.024683 -0.035717 -0.096954 0.073424 -0.534721 -0.108871 -0.038149 -0.732422 -0.066815 -0.080459 -0.493399 0.418400 0.245226 -0.923017 1.161522 0.818255 -1.199612 4.467478 -0.294845 1.789487 -29.848593 -16.854381 6.901997 28.000415 26.885783 -23.686150 15.293243 6.495513 26.930869 1.430802 1.172228 0.326185 -8.647520 8.471201 -18.007512 6.661131 -5.842135 -5.578160 -2.155904 -6.610742 4.292393 5.890030 -2.260792 -2.095656 -9.266932 -1.909936 7.234151 -6.522480 1.255228 -10.282336 1.458118 -0.040068 1.803165 -0.207130 -4.360363 -7.237540 -1.034949 4.157287 13.547980 -10.426453 -0.083519 3.929133 -0.648107 -0.001382 0.173471 
-5.147812 0.000000 -13.948900 -0.000000 0.000000 -0.000000 -1.184315 7.048444 1.914584 -1.274848 -0.460530 -0.681534 -0.338642 0.740876 -1.184645 -0.235872 0.039719 -1.505775 -0.147468 -0.085926 -1.023149 0.880709 0.682084 -1.520969 2.228178 1.875675 -1.813244 6.538252 0.371972 2.268063 -24.706328 -19.268587 5.614054 29.095598 27.481775 -24.672291 9.611674 9.183866 26.601620 1.762467 1.394750 0.416884 -9.795613 11.573768 -21.463094 5.559762 -4.798536 -4.670474 -1.341130 -9.117432 6.055453 5.516168 -4.067943 -1.952147 -4.276776 -0.729970 3.353499 -6.268947 -0.903702 -8.010530 0.977929 -0.041189 1.344306 -0.214353 -3.964024 -9.769339 -1.373496 4.985531 16.387980 -16.294019 0.024627 10.516835 -0.887521 -0.003095 0.237530 
-6.628364 0.000000 -22.387699 -0.000000 0.000000 -0.000000 -2.627474 6.774554 5.642765 -4.327550 -1.493427 -2.341974 -0.577165 2.722917 -2.463289 0.086328 0.175991 -2.836888 0.079571 -0.086324 -1.930628 1.416937 1.403832 -1.977324 3.274509 3.398260 -2.112324 13.898432 1.834904 4.701230 -11.070633 -18.432363 -3.978020 17.606209 19.786059 -14.476169 -7.125039 9.021423 11.278915 2.390586 3.524239 -0.175850 -15.967577 16.747443 -28.057920 2.413217 -1.987818 -2.043945 0.149583 -7.683278 5.868827 7.414649 -5.728079 -2.614779 3.682323 0.423211 -2.901401 -11.465368 -2.735596 -2.767869 0.659901 -0.023830 0.816128 2.320833 -0.558095 -13.468730 -1.674925 5.637194 18.672335 -19.214668 -1.610638 18.330170 -1.155188 -0.005652 0.309165 
-7.395344 0.000000 -29.709600 -0.000000 0.000000 -0.000000 -3.771475 6.349682 7.872581 -6.185623 -2.073598 -3.370780 -0.700814 4.290814 -2.950459 0.397180 0.418615 -3.178543 0.289532 0.058106 -2.176601 1.919105 1.346256 -2.327664 4.400151 3.455799 -2.403219 17.932503 2.986345 5.974004 -2.723965 -17.586999 -6.917812 5.970732 8.004056 -4.671993 -18.626061 14.993865 -1.851004 2.690147 5.465452 -0.934457 -19.569201 18.008528 -31.694926 0.567308 -0.454460 -0.482603 0.155049 -4.361389 3.909771 10.655928 -4.518732 -4.721773 2.059237 0.259948 -1.621279 -8.227182 -1.869376 -2.095108 0.468724 0.020529 0.054426 5.097081 0.725126 -12.968445 -1.262605 4.727022 15.494368 -14.695333 -1.341249 17.046801 -1.229161 -0.006474 0.328948 
-7.473475 0.000000 -32.644600 -0.000000 0.000000 -0.000000 -4.853153 5.942270 9.921324 -7.567834 -2.481302 -4.144333 -0.969025 5.857662 -3.157056 0.457611 0.829368 -3.192921 0.324362 0.336068 -2.215635 2.538776 1.186234 -3.039998 6.001944 3.416682 -3.265860 19.560137 5.236690 4.861597 9.731983 -16.426378 6.025160 -1.830088 -2.745268 1.359665 -30.141215 21.961047 -19.895030 3.015664 7.484542 -1.786047 -21.418444 19.750050 -35.478560 -0.977700 0.764932 0.834580 -0.423903 -2.495195 2.500106 13.867721 -2.902751 -7.683476 -1.596023 -0.242305 1.253892 -3.804003 -1.387025 -2.256889 0.286817 0.020809 -0.174109 7.641673 1.786966 -11.068991 -0.612521 2.908930 9.376944 -8.483845 -0.096602 15.246172 -1.422853 -0.008875 0.380766 
